<?xml version="1.0" encoding="iso-8859-1"?>
<!-- Generator: Adobe Illustrator 19.0.0, SVG Export Plug-In . SVG Version: 6.00 Build 0)  -->
<svg version="1.1" id="Capa_1" xmlns="http://www.w3.org/2000/svg" xmlns:xlink="http://www.w3.org/1999/xlink" x="0px" y="0px"
	 viewBox="0 0 512 512" style="enable-background:new 0 0 512 512;" xml:space="preserve">
<g>
	<g>
		<rect y="260.201" width="24" height="15"/>
	</g>
</g>
<g>
	<g>
		<rect x="39" y="260.4" width="15" height="15"/>
	</g>
</g>
<g>
	<g>
		<path d="M402.116,260.402L402.116,260.402c-0.396-4.303-0.97-8.553-1.73-12.741l51.917-9.154l-2.605-14.772l-52.752,9.302
			c-0.951-3.279-2.008-6.513-3.177-9.693l105.828-38.519l-5.131-14.096L387.863,209.53c-1.462-2.99-3.017-5.926-4.671-8.798
			l48.039-27.735l-7.5-12.99l-48.695,28.114c-1.9-2.637-3.88-5.214-5.946-7.717l88.222-74.027l-9.643-11.491l-88.716,74.442
			c-2.266-2.239-4.599-4.41-7.005-6.5l37.075-44.184l-11.491-9.644l-37.401,44.573c-2.562-1.805-5.182-3.532-7.86-5.174
			l58.474-101.28l-12.99-7.5L319.1,141.212c-2.789-1.341-5.63-2.59-8.512-3.757l20.183-55.452l-14.096-5.13l-20.262,55.67
			c-2.946-0.853-5.931-1.614-8.95-2.284l20.464-116.055L293.156,11.6l-20.483,116.163c-3.031-0.354-6.088-0.621-9.172-0.787V67.496
			h-15v59.429c-3.09,0.145-6.154,0.39-9.192,0.724L218.846,11.6l-14.771,2.605L224.5,130.048c-3.038,0.653-6.043,1.394-9.009,2.232
			l-20.167-55.408l-14.096,5.13l20.053,55.096c-2.913,1.158-5.777,2.411-8.595,3.745L134.245,39.62l-12.99,7.5l58.213,100.827
			c-2.715,1.644-5.369,3.378-7.966,5.189l-37.034-44.135l-11.49,9.642l36.657,43.686c-2.447,2.104-4.821,4.289-7.125,6.547
			L64.331,94.884l-9.643,11.491l87.637,73.536c-2.107,2.53-4.128,5.134-6.064,7.802L88.27,160.006l-7.5,12.99l47.294,27.305
			c-1.69,2.912-3.281,5.888-4.773,8.921L17.534,170.728l-5.131,14.096l104.95,38.199c-1.196,3.23-2.278,6.514-3.249,9.846
			l-51.802-9.134l-2.605,14.772l50.949,8.984c-0.775,4.243-1.361,8.55-1.762,12.911H69v15h443v-15H402.116z M123.946,260.402
			c6.831-66.556,63.223-118.646,131.554-118.646s124.723,52.09,131.554,118.646H123.946z"/>
	</g>
</g>
<g>
	<g>
		<rect x="106.5" y="297.9" width="120" height="15"/>
	</g>
</g>
<g>
	<g>
		<rect x="241.5" y="297.9" width="172.5" height="15"/>
	</g>
</g>
<g>
	<g>
		<rect x="151.5" y="335.4" width="112.5" height="15"/>
	</g>
</g>
<g>
	<g>
		<rect x="279" y="335.4" width="22.5" height="15"/>
	</g>
</g>
<g>
	<g>
		<rect x="316.5" y="335.4" width="52.5" height="15"/>
	</g>
</g>
<g>
	<g>
		<rect x="174" y="372.9" width="172.5" height="15"/>
	</g>
</g>
<g>
	<g>
		<rect x="211.5" y="410.4" width="60" height="15"/>
	</g>
</g>
<g>
	<g>
		<rect x="286.5" y="410.4" width="15" height="15"/>
	</g>
</g>
<g>
	<g>
		<rect x="241.5" y="447.9" width="37.5" height="15"/>
	</g>
</g>
<g>
	<g>
		<rect x="252.75" y="485.4" width="15" height="15"/>
	</g>
</g>
<g>
	<g>
		<rect x="31.5" y="320.4" width="52.5" height="15"/>
	</g>
</g>
<g>
	<g>
		<rect x="114" y="357.9" width="15" height="15"/>
	</g>
</g>
<g>
	<g>
		<rect x="61.5" y="395.4" width="45" height="15"/>
	</g>
</g>
<g>
	<g>
		<rect x="129" y="432.9" width="45" height="15"/>
	</g>
</g>
<g>
	<g>
		<rect x="189" y="462.9" width="15" height="15"/>
	</g>
</g>
<g>
	<g>
		<rect x="436.5" y="320.4" width="52.5" height="15"/>
	</g>
</g>
<g>
	<g>
		<rect x="391.5" y="357.9" width="15" height="15"/>
	</g>
</g>
<g>
	<g>
		<rect x="414" y="395.4" width="45" height="15"/>
	</g>
</g>
<g>
	<g>
		<rect x="346.5" y="432.9" width="45" height="15"/>
	</g>
</g>
<g>
	<g>
		<rect x="316.5" y="462.9" width="15" height="15"/>
	</g>
</g>
<g>
</g>
<g>
</g>
<g>
</g>
<g>
</g>
<g>
</g>
<g>
</g>
<g>
</g>
<g>
</g>
<g>
</g>
<g>
</g>
<g>
</g>
<g>
</g>
<g>
</g>
<g>
</g>
<g>
</g>
</svg>
